<svg xmlns="http://www.w3.org/2000/svg" viewBox="0 0 1000 1000">
  <path d="M928.8 959.4h-30.6V239.7c0-8.5-6.9-15.3-15.3-15.3H791v-61.3c0-8.5-6.9-15.3-15.3-15.3s-15.3 6.9-15.3 15.3v61.3h-30.6V86.6c0-8.5-6.9-15.3-15.3-15.3s-15.3 6.9-15.3 15.3v137.8h-30.6c-8.5 0-15.3 6.9-15.3 15.3S660 255 668.4 255h199.1v45.9H668.4c-8.5 0-15.3 6.9-15.3 15.3 0 8.5 6.9 15.3 15.3 15.3h199.1v30.6H668.4c-8.5 0-15.3 6.9-15.3 15.3s6.9 15.3 15.3 15.3h199.1v30.6H668.4c-8.5 0-15.3 6.9-15.3 15.3s6.9 15.3 15.3 15.3h199.1v30.6H668.4c-8.5 0-15.3 6.9-15.3 15.3s6.9 15.3 15.3 15.3h199.1v30.6H668.4c-8.5 0-15.3 6.9-15.3 15.3s6.9 15.3 15.3 15.3h199.1v30.6H668.4c-8.5 0-15.3 6.9-15.3 15.3s6.9 15.3 15.3 15.3h199.1v30.6H668.4c-8.5 0-15.3 6.9-15.3 15.3s6.9 15.3 15.3 15.3h199.1v30.6H668.4c-8.5 0-15.3 6.9-15.3 15.3s6.9 15.3 15.3 15.3h199.1v30.6H668.4c-8.5 0-15.3 6.9-15.3 15.3s6.9 15.3 15.3 15.3h199.1v30.6H668.4c-8.5 0-15.3 6.9-15.3 15.3 0 8.5 6.9 15.3 15.3 15.3h199.1v76.6h-245V25.3c0-8.5-6.9-15.3-15.3-15.3h-490c-8.5 0-15.3 6.9-15.3 15.3v934.1H71.3c-8.5 0-15.3 6.9-15.3 15.3S62.8 990 71.3 990h857.5c8.5 0 15.3-6.9 15.3-15.3s-6.9-15.3-15.3-15.3zM132.5 101.9h459.4v719.7H132.5V101.9zm459.4-61.3v30.6H132.5V40.6h459.4zM132.5 852.2h459.4v107.2h-30.6v-61.3c0-8.5-6.9-15.3-15.3-15.3s-15.3 6.9-15.3 15.3v61.3H500v-61.3c0-8.5-6.9-15.3-15.3-15.3-8.5 0-15.3 6.9-15.3 15.3v61.3h-30.6v-61.3c0-8.5-6.9-15.3-15.3-15.3-8.5 0-15.3 6.9-15.3 15.3v61.3h-30.6v-61.3c0-8.5-6.9-15.3-15.3-15.3-8.5 0-15.3 6.9-15.3 15.3v61.3h-30.6v-61.3c0-8.5-6.9-15.3-15.3-15.3-8.5 0-15.3 6.9-15.3 15.3v61.3H255v-61.3c0-8.5-6.9-15.3-15.3-15.3-8.5 0-15.3 6.9-15.3 15.3v61.3h-30.6v-61.3c0-8.5-6.9-15.3-15.3-15.3-8.5 0-15.3 6.9-15.3 15.3v61.3h-30.6V852.2z"/>
  <path d="M300.9 132.5c-8.5 0-15.3 6.9-15.3 15.3v627.8c0 8.5 6.9 15.3 15.3 15.3 8.5 0 15.3-6.9 15.3-15.3V147.8c.1-8.4-6.8-15.3-15.3-15.3zm61.3 0c-8.5 0-15.3 6.9-15.3 15.3v627.8c0 8.5 6.9 15.3 15.3 15.3 8.5 0 15.3-6.9 15.3-15.3V147.8c0-8.4-6.9-15.3-15.3-15.3zm-122.5 0c-8.5 0-15.3 6.9-15.3 15.3v627.8c0 8.5 6.9 15.3 15.3 15.3 8.5 0 15.3-6.9 15.3-15.3V147.8c0-8.4-6.9-15.3-15.3-15.3zm-61.3 0c-8.5 0-15.3 6.9-15.3 15.3v627.8c0 8.5 6.9 15.3 15.3 15.3 8.5 0 15.3-6.9 15.3-15.3V147.8c.1-8.4-6.8-15.3-15.3-15.3zm367.5 0c-8.5 0-15.3 6.9-15.3 15.3v627.8c0 8.5 6.9 15.3 15.3 15.3s15.3-6.9 15.3-15.3V147.8c.1-8.4-6.8-15.3-15.3-15.3zm-61.2 0c-8.5 0-15.3 6.9-15.3 15.3v627.8c0 8.5 6.9 15.3 15.3 15.3 8.5 0 15.3-6.9 15.3-15.3V147.8c0-8.4-6.9-15.3-15.3-15.3zm-61.3 0c-8.5 0-15.3 6.9-15.3 15.3v627.8c0 8.5 6.9 15.3 15.3 15.3 8.5 0 15.3-6.9 15.3-15.3V147.8c.1-8.4-6.8-15.3-15.3-15.3z"/>
</svg>
