<?xml version="1.0" encoding="utf-8"?>
<!-- Svg Vector Icons : http://www.onlinewebfonts.com/icon -->
<!DOCTYPE svg PUBLIC "-//W3C//DTD SVG 1.1//EN" "http://www.w3.org/Graphics/SVG/1.1/DTD/svg11.dtd">
<svg version="1.1" xmlns="http://www.w3.org/2000/svg" xmlns:xlink="http://www.w3.org/1999/xlink" x="0px" y="0px" viewBox="0 0 1000 1000" enable-background="new 0 0 1000 1000" xml:space="preserve">
<metadata> Svg Vector Icons : http://www.onlinewebfonts.com/icon </metadata>
<g><g><path d="M928.8,959.4h-30.6V239.7c0-8.5-6.9-15.3-15.3-15.3h-91.9v-61.3c0-8.5-6.9-15.3-15.3-15.3s-15.3,6.9-15.3,15.3v61.3h-30.6V86.6c0-8.5-6.9-15.3-15.3-15.3s-15.3,6.9-15.3,15.3v137.8h-30.6c-8.5,0-15.3,6.9-15.3,15.3S660,255,668.4,255h199.1v45.9H668.4c-8.5,0-15.3,6.9-15.3,15.3c0,8.5,6.9,15.3,15.3,15.3h199.1v30.6H668.4c-8.5,0-15.3,6.9-15.3,15.3s6.9,15.3,15.3,15.3h199.1v30.6H668.4c-8.5,0-15.3,6.9-15.3,15.3s6.9,15.3,15.3,15.3h199.1v30.6H668.4c-8.5,0-15.3,6.9-15.3,15.3s6.9,15.3,15.3,15.3h199.1v30.6H668.4c-8.5,0-15.3,6.9-15.3,15.3s6.9,15.3,15.3,15.3h199.1v30.6H668.4c-8.5,0-15.3,6.9-15.3,15.3s6.9,15.3,15.3,15.3h199.1v30.6H668.4c-8.5,0-15.3,6.9-15.3,15.3s6.9,15.3,15.3,15.3h199.1v30.6H668.4c-8.5,0-15.3,6.9-15.3,15.3s6.9,15.3,15.3,15.3h199.1v30.6H668.4c-8.5,0-15.3,6.9-15.3,15.3s6.9,15.3,15.3,15.3h199.1v30.6H668.4c-8.5,0-15.3,6.9-15.3,15.3c0,8.5,6.9,15.3,15.3,15.3h199.1v76.6h-245V25.3c0-8.5-6.9-15.3-15.3-15.3h-490c-8.5,0-15.3,6.9-15.3,15.3v934.1H71.3c-8.5,0-15.3,6.9-15.3,15.3S62.8,990,71.3,990h857.5c8.5,0,15.3-6.9,15.3-15.3S937.2,959.4,928.8,959.4z M132.5,101.9h459.4v719.7H132.5V101.9z M591.9,40.6v30.6H132.5V40.6H591.9z M132.5,852.2h459.4v107.2h-30.6v-61.3c0-8.5-6.9-15.3-15.3-15.3s-15.3,6.9-15.3,15.3v61.3H500v-61.3c0-8.5-6.9-15.3-15.3-15.3c-8.5,0-15.3,6.9-15.3,15.3v61.3h-30.6v-61.3c0-8.5-6.9-15.3-15.3-15.3c-8.5,0-15.3,6.9-15.3,15.3v61.3h-30.6v-61.3c0-8.5-6.9-15.3-15.3-15.3c-8.5,0-15.3,6.9-15.3,15.3v61.3h-30.6v-61.3c0-8.5-6.9-15.3-15.3-15.3c-8.5,0-15.3,6.9-15.3,15.3v61.3H255v-61.3c0-8.5-6.9-15.3-15.3-15.3c-8.5,0-15.3,6.9-15.3,15.3v61.3h-30.6v-61.3c0-8.5-6.9-15.3-15.3-15.3c-8.5,0-15.3,6.9-15.3,15.3v61.3h-30.6V852.2z"/><path d="M300.9,132.5c-8.5,0-15.3,6.9-15.3,15.3v627.8c0,8.5,6.9,15.3,15.3,15.3c8.5,0,15.3-6.9,15.3-15.3V147.8C316.3,139.4,309.4,132.5,300.9,132.5z"/><path d="M362.2,132.5c-8.5,0-15.3,6.9-15.3,15.3v627.8c0,8.5,6.9,15.3,15.3,15.3c8.5,0,15.3-6.9,15.3-15.3V147.8C377.5,139.4,370.6,132.5,362.2,132.5z"/><path d="M239.7,132.5c-8.5,0-15.3,6.9-15.3,15.3v627.8c0,8.5,6.9,15.3,15.3,15.3c8.5,0,15.3-6.9,15.3-15.3V147.8C255,139.4,248.1,132.5,239.7,132.5z"/><path d="M178.4,132.5c-8.5,0-15.3,6.9-15.3,15.3v627.8c0,8.5,6.9,15.3,15.3,15.3c8.5,0,15.3-6.9,15.3-15.3V147.8C193.8,139.4,186.9,132.5,178.4,132.5z"/><path d="M545.9,132.5c-8.5,0-15.3,6.9-15.3,15.3v627.8c0,8.5,6.9,15.3,15.3,15.3s15.3-6.9,15.3-15.3V147.8C561.3,139.4,554.4,132.5,545.9,132.5z"/><path d="M484.7,132.5c-8.5,0-15.3,6.9-15.3,15.3v627.8c0,8.5,6.9,15.3,15.3,15.3c8.5,0,15.3-6.9,15.3-15.3V147.8C500,139.4,493.1,132.5,484.7,132.5z"/><path d="M423.4,132.5c-8.5,0-15.3,6.9-15.3,15.3v627.8c0,8.5,6.9,15.3,15.3,15.3c8.5,0,15.3-6.9,15.3-15.3V147.8C438.8,139.4,431.9,132.5,423.4,132.5z"/></g><g></g><g></g><g></g><g></g><g></g><g></g><g></g><g></g><g></g><g></g><g></g><g></g><g></g><g></g><g></g></g>
</svg>