<!--?xml version="1.0" encoding="iso-8859-1"?-->
<!-- Generator: Adobe Illustrator 16.0.0, SVG Export Plug-In . SVG Version: 6.00 Build 0)  -->

<svg version="1.1" id="Capa_1" xmlns="http://www.w3.org/2000/svg" xmlns:xlink="http://www.w3.org/1999/xlink" x="0px" y="0px" width="611.997px" height="611.998px" viewBox="0 0 611.997 611.998" style="" xml:space="preserve">
<g>
	<g>
		<path d="M511.114,300.251c-9.94,0-17.638,7.663-17.638,17.651v241.105H368.401v-98.453c0-9.236-7.697-17.31-17.002-17.31h-90.435
			c-9.948,0-17.96,8.073-17.96,17.31v98.453h-124.76v-233.1c0-9.306-7.69-17.036-17.638-17.036c-9.298,0-16.995,7.73-16.995,17.036
			v250.752c0,9.305,7.697,17.036,16.995,17.036h160.358c9.298,0,16.995-7.731,16.995-17.036v-98.454h55.801v98.454
			c0,9.305,7.697,17.036,17.639,17.036h159.715c9.299,0,16.995-7.731,16.995-17.036V317.903
			C528.109,307.915,520.413,300.251,511.114,300.251z" class="fUwErsOo_0"></path>
		<path d="M607.003,314.003L467.819,174.225V78.919c0-9.921-8.019-17.583-17.96-17.583c-9.305,0-17.001,7.663-17.001,17.583v60.345
			L318.046,23.774c-3.518-3.558-7.697-5.474-11.864-5.474c-4.81,0-8.983,1.984-12.507,5.474L5.361,312.087
			c-6.917,6.91-7.375,17.994,0,24.357c6.411,7.389,17.454,6.91,24.371,0l276.45-275.793l275.807,278.393
			c2.873,2.874,7.054,4.516,12.507,4.516c4.81,0,8.976-1.642,12.507-4.516C613.42,332.613,613.899,320.982,607.003,314.003z" class="fUwErsOo_1"></path>
	</g>
</g>
<g>
</g>
<g>
</g>
<g>
</g>
<g>
</g>
<g>
</g>
<g>
</g>
<g>
</g>
<g>
</g>
<g>
</g>
<g>
</g>
<g>
</g>
<g>
</g>
<g>
</g>
<g>
</g>
<g>
</g>
<style>.fUwErsOo_0{stroke-dasharray:2365 2367;stroke-dashoffset:2366;animation:fUwErsOo_draw_0 7200ms linear 0ms infinite,fUwErsOo_fade 7200ms linear 0ms infinite;}.fUwErsOo_1{stroke-dasharray:1899 1901;stroke-dashoffset:1900;animation:fUwErsOo_draw_1 7200ms linear 0ms infinite,fUwErsOo_fade 7200ms linear 0ms infinite;}@keyframes fUwErsOo_draw{100%{stroke-dashoffset:0;}}@keyframes fUwErsOo_fade{0%{stroke-opacity:1;}94.44444444444444%{stroke-opacity:1;}100%{stroke-opacity:0;}}@keyframes fUwErsOo_draw_0{11.11111111111111%{stroke-dashoffset: 2366}38.88888888888889%{ stroke-dashoffset: 0;}100%{ stroke-dashoffset: 0;}}@keyframes fUwErsOo_draw_1{25%{stroke-dashoffset: 1900}52.77777777777778%{ stroke-dashoffset: 0;}100%{ stroke-dashoffset: 0;}}</style></svg>
